<svg id="SvgjsSvg1018" width="288" height="288" xmlns="http://www.w3.org/2000/svg" version="1.1" xmlns:xlink="http://www.w3.org/1999/xlink" xmlns:svgjs="http://svgjs.com/svgjs"><defs id="SvgjsDefs1019"></defs><g id="SvgjsG1020"><svg xmlns="http://www.w3.org/2000/svg" viewBox="0 0 24 24" width="288" height="288"><path fill="none" d="M0 0h24v24H0Z" data-name="Path 3668"></path><path fill="#dce1e8" d="M3.3 21.6a.9.9 0 0 1-.9-.9v-5.4a.9.9 0 0 1 .9-.9.9.9 0 0 1 .9.9v3.227l5.2-5.2a.9.9 0 0 1 1.273 0 .9.9 0 0 1 0 1.273l-5.2 5.2H8.7a.9.9 0 0 1 .9.9.9.9 0 0 1-.9.9Zm9.936-10.927a.9.9 0 0 1 0-1.273l5.2-5.2h-3.227a.9.9 0 0 1-.9-.9.9.9 0 0 1 .9-.9h5.4a.9.9 0 0 1 .9.9v5.4a.9.9 0 0 1-.9.9.9.9 0 0 1-.9-.9V5.473l-5.2 5.2a.9.9 0 0 1-.636.264.9.9 0 0 1-.637-.264Z" data-name="Path 3561" class="color525863 svgShape"></path></svg></g></svg>